<?xml version="1.0" encoding="utf-8"?>
<!-- Generator: Adobe Illustrator 23.0.2, SVG Export Plug-In . SVG Version: 6.00 Build 0)  -->
<svg version="1.1" id="Layer_1" xmlns="http://www.w3.org/2000/svg" xmlns:xlink="http://www.w3.org/1999/xlink" x="0px" y="0px"
	 viewBox="0 0 1244 1280" style="enable-background:new 0 0 1244 1280;" xml:space="preserve">
<style type="text/css">
	.st0{fill:#F6C343;}
</style>
<g>
	<path class="st0" d="M619.5,30.2C958,29.8,1240.6,294.4,1244,644.4c3.3,345.1-272.6,627.5-622,627.4C295.9,1271.7,3.3,1012.4,0,655
		C-3.1,310.5,271.7,30.3,619.5,30.2z M262.4,1027.9C476,755.1,689,483.1,902.1,211c-207-135.2-508.3-108.4-685.9,111.1
		C37.2,543.4,75.9,855.4,262.4,1027.9z M981.6,271.8C768,544.6,555.1,816.5,342,1088.6c201.3,132.6,502.1,112.4,683.4-107.7
		C1209.7,757,1173.5,450.9,981.6,271.8z"/>
	<path class="st0" d="M738.5,345.2c-7.6,9.7-13.2,17.1-19,24.4c-14.1,17.9-28.6,35.4-42.1,53.7c-5.6,7.7-11.8,9.9-20.8,9.8
		c-66.6-0.3-133.2,0-199.8-0.4c-9.4-0.1-13.5,2.8-16.7,11.8c-19.9,55.5-40.5,110.8-61.5,167.7c50,0,98.8,0,151.1,0
		c-73.8,94.3-145.7,186.1-217.5,277.9c-0.8-0.2-1.7-0.5-2.5-0.7c0-14.1,0-28.2,0-43.5c-20,0-38.5,0-57,0c-20.7,0-27.9-7-27.9-27.2
		c0-58.3,0-116.6,0-174.9c0-20.5,10.6-30.8,31.4-31c29.6-0.3,29.6-0.2,39.8-27.9c24.9-67.8,49.7-135.7,74.6-203.5
		c9.6-26.3,23.4-36.1,51.2-36.1c100.9,0,201.8,0,302.7,0C728.1,345.2,731.7,345.2,738.5,345.2z M309.9,755.1c30.2,0,59.3,0,88.5,0
		c0-15.1,0-29.2,0-43.1c-30.1,0-59.1,0-88.5,0C309.9,726.7,309.9,740.2,309.9,755.1z"/>
	<path class="st0" d="M900,454.2c8.8,23.6,16.9,45.2,24.9,66.7c10.9,29.4,21.9,58.8,32.5,88.3c2.3,6.3,5.2,9.4,12.4,8.8
		c8.6-0.7,17.4-0.3,26-0.1c15.2,0.5,23.2,8.2,23.3,23.1c0.2,61.2,0.2,122.4,0,183.6c0,15-9,23.5-24.3,23.7
		c-19.4,0.3-38.8,0.1-60.2,0.1c0,19.4,0.3,38.2-0.1,57c-0.4,24.2-15,41.4-37.7,45.4c-26.3,4.6-50.2-13.6-51.8-40.3
		c-1-15.7-0.3-31.4-0.4-47.1c0-4.5,0-8.9,0-14.8c-86.5,0-171.7,0-259.6,0c15.9-20.3,30.1-38.4,44.3-56.5
		c43.9-56,87.8-111.9,131.4-168c5.1-6.6,10.4-9.1,18.7-8.9c28.1,0.5,56.2,0.2,86.1,0.2c-9.2-24.5-17.5-48.1-26.9-71.2
		c-4-9.7-2.9-16.3,4.3-24.2C861.9,499,880.1,477.2,900,454.2z M845.2,752.1c30.6,0,59.7,0,88.6,0c0-15,0-28.9,0-43.2
		c-29.9,0-59,0-88.6,0C845.2,723.7,845.2,737.6,845.2,752.1z"/>
</g>
</svg>
