<?xml version="1.0" encoding="utf-8"?>
<!-- Generator: Adobe Illustrator 23.0.2, SVG Export Plug-In . SVG Version: 6.00 Build 0)  -->
<svg version="1.1" id="Layer_1" xmlns="http://www.w3.org/2000/svg" xmlns:xlink="http://www.w3.org/1999/xlink" x="0px" y="0px"
	 viewBox="0 0 1244 1280" style="enable-background:new 0 0 1244 1280;" xml:space="preserve">
<style type="text/css">
	.st0{fill:#32C787;}
</style>
<g transform="translate(0.000000,1280.000000) scale(0.100000,-0.100000)">
	<g>
		<path class="st0" d="M4030,12780c-330-30-522-62-785-130c-619-160-1185-453-1700-881c-129-107-407-385-514-514
			c-567-683-904-1468-995-2325c-37-340-41-461-22-690c10-118,24-264,32-325c105-818,442-1583,978-2225c103-124,344-367,476-482
			c590-513,1294-852,2063-993c410-75,943-86,1362-29c633,87,1285,335,1801,684c40,26,82,54,94,60c21,11,157-122,2449-2413
			C11200,587,11705,87,11745,67c78-38,192-69,239-64c119,13,220,59,304,141c84,81,136,190,149,312c5,46-25,161-64,239
			c-20,40-515,540-2429,2455C8622,4473,7540,5558,7540,5562s31,42,68,86c1076,1249,1350,3000,705,4511c-105,245-218,454-379,696
			c-491,740-1196,1311-2019,1634c-426,168-769,245-1290,291C4364,12803,4288,12803,4030,12780z M4765,11856
			c652-92,1208-330,1715-735c118-95,337-307,440-426c757-882,1013-2057,694-3175c-113-395-335-829-588-1150
			c-697-884-1751-1366-2865-1309c-1176,60-2224,712-2810,1746c-192,339-337,766-395,1163c-52,356-45,765,19,1115
			c241,1311,1241,2374,2535,2695c175,44,348,72,575,94C4179,11883,4660,11870,4765,11856z"/>
	</g>
</g>
<g>
	<path class="st0" d="M428.9,159.9c149.9,1.1,271.2,123.6,270.2,273c-1,148.7-123.9,270.3-272.1,269.3
		C277.7,701.1,156.4,579.4,156.8,431C157.2,281.3,280.1,158.8,428.9,159.9z M426.6,666.9C554,667.5,661.5,562.6,664.1,439
		c2.8-132.2-102.6-242-230.4-243.5C302.1,193.9,192.7,298.2,192.2,424C191.7,559.6,294.7,666.3,426.6,666.9z"/>
	<path class="st0" d="M442.7,566.8c-0.4,8.5-0.8,17-1.3,26.9c-8.7,0-17,0-26.6,0c-0.6-7.6-1.1-15.5-1.7-23
		c-25.2-5.2-50.1-10.3-76.5-15.7c4.6-19.2,8.4-34.7,11.8-48.9c18.8,4.5,36.7,8.8,54.6,12.9c3.3,0.8,6.9,1,10.3,1.1
		c24,0.5,41.5-9.3,44.8-24.9c3.1-14.9-5.9-26-30.1-36.9c-15.8-7.1-32.4-12.6-47.4-21.1c-27.1-15.4-43.2-38.3-39.7-71.1
		c3.3-31.3,21.8-51.3,50-63.1c22.2-9.3,22.2-9.1,23.7-34.3c8.2,0,16.5,0,26.5,0c0.6,7.7,1.2,16,1.8,23.3
		c22.3,4.5,43.5,8.8,65.8,13.3c-5,17.8-9.2,32.6-13.4,47.6c-14.7-3.3-28.4-7.5-42.4-9.2c-10.1-1.3-21.7-1.8-30.7,1.9
		c-8.5,3.5-18.4,12.1-20.4,20.2c-1.6,6.8,5.4,18.7,12.1,23.8c10.3,7.8,23.6,11.7,35.5,17.4c10.4,4.9,21.3,9.2,31.2,15
		c26.9,15.6,40.4,39,37.9,70.5c-2.4,30.6-18.8,51.5-46.1,64C463.2,560.4,453.1,563.1,442.7,566.8z"/>
</g>
</svg>
