<?xml version="1.0" encoding="utf-8"?>
<!-- Generator: Adobe Illustrator 23.0.2, SVG Export Plug-In . SVG Version: 6.00 Build 0)  -->
<svg version="1.1" id="Layer_1" xmlns="http://www.w3.org/2000/svg" xmlns:xlink="http://www.w3.org/1999/xlink" x="0px" y="0px"
	 viewBox="0 0 1244 1280" style="enable-background:new 0 0 1244 1280;" xml:space="preserve">
<style type="text/css">
	.st0{fill:#AB7DF6;}
</style>
<g transform="translate(0.000000,1280.000000) scale(0.100000,-0.100000)">
	<g>
		<path class="st0" d="M4030,12780c-330-30-522-62-785-130c-619-160-1185-453-1700-881c-129-107-407-385-514-514
			c-567-683-904-1468-995-2325c-37-340-41-461-22-690c10-118,24-264,32-325c105-818,442-1583,978-2225c103-124,344-367,476-482
			c590-513,1294-852,2063-993c410-75,943-86,1362-29c633,87,1285,335,1801,684c40,26,82,54,94,60c21,11,157-122,2449-2413
			C11200,587,11705,87,11745,67c78-38,192-69,239-64c119,13,220,59,304,141c84,81,136,190,149,312c5,46-25,161-64,239
			c-20,40-515,540-2429,2455C8622,4473,7540,5558,7540,5562s31,42,68,86c1076,1249,1350,3000,705,4511c-105,245-218,454-379,696
			c-491,740-1196,1311-2019,1634c-426,168-769,245-1290,291C4364,12803,4288,12803,4030,12780z M4765,11856
			c652-92,1208-330,1715-735c118-95,337-307,440-426c757-882,1013-2057,694-3175c-113-395-335-829-588-1150
			c-697-884-1751-1366-2865-1309c-1176,60-2224,712-2810,1746c-192,339-337,766-395,1163c-52,356-45,765,19,1115
			c241,1311,1241,2374,2535,2695c175,44,348,72,575,94C4179,11883,4660,11870,4765,11856z"/>
	</g>
</g>
<g>
	<path class="st0" d="M296.9,185.8H473c92.6,0,169.4,47.7,169.4,144c0,100.8-73.1,152-177.9,152h-80.7v199h-87V185.8z M384.9,412.8
		h75.5c57.2,0,93.9-20.7,93.9-80.4c0-52.9-37.5-75.6-91.6-75.6h-77.8V412.8z"/>
</g>
</svg>
