<?xml version="1.0" encoding="utf-8"?>
<!-- Generator: Adobe Illustrator 23.0.2, SVG Export Plug-In . SVG Version: 6.00 Build 0)  -->
<svg version="1.1" id="Layer_1" xmlns="http://www.w3.org/2000/svg" xmlns:xlink="http://www.w3.org/1999/xlink" x="0px" y="0px"
	 viewBox="0 0 1244 1280" style="enable-background:new 0 0 1244 1280;" xml:space="preserve">
<style type="text/css">
	.st0{fill:#D50000;}
</style>
<g>
	<path class="st0" d="M194.3,1054c0,17.6,0.7,37.6-0.1,57.5c-2.2,51-43.1,90.1-93.2,89.8c-50.2-0.3-92.4-39.5-92.9-90.4
		c-1-118-1.6-236.1,0.5-354.1c0.9-51,26.1-92.7,63.1-128.1c13.1-12.5,24.7-28.9,30.9-45.8c29-78.5,55.7-157.9,83.6-236.8
		c31.9-90.3,94.5-135,189.5-135.7c3.2,0,6.4,0,9.6,0c60.4-0.1,60.8,0,82-57.8c9.2-25.1,25.5-37.4,52.6-37.2c67,0.5,134,0.6,201-0.1
		c28.4-0.3,46.5,11.4,54.5,38.7c1.5,5.1,4.5,9.9,5.1,15c4.1,36.1,25,45,58.9,41.9c79.4-7.3,149.5,13.9,192.7,85.2
		c21.6,35.7,33.4,77.5,48.2,117.1c15.2,40.7,29.5,81.7,42.8,123.1c13.7,42.5,28.6,81.8,65,113.2c32.8,28.3,45.9,71,46.1,115.2
		c0.6,113.8,0.7,227.6,0.1,341.4c-0.3,55.4-41.5,96-94.4,95.4c-51.5-0.6-90.7-40.7-92-94.3c-0.4-18-0.1-36-0.1-53
		C764,1054,481.9,1054,194.3,1054z M620.8,302.3c-81.9,0-163.8-0.1-245.8,0c-43.2,0.1-77.7,17.4-94.1,58.2
		c-20.8,52.1-38.6,105.5-56.1,158.8c-9.6,29.2,9.6,51.1,39.5,47.7c57-6.4,113.8-15.1,170.9-19.2c178.7-12.6,357-9.7,534.4,17.4
		c40,6.1,59.2-14.9,46.3-53c-14.9-44.2-30.5-88.1-46.2-132.1c-20.1-56.3-50.4-77.8-109.7-77.9C780.3,302.2,700.5,302.3,620.8,302.3z
		 M621.3,728.9c-44.6,0-89.3-0.2-133.9,0.1c-34.1,0.2-56.3,19.1-56.5,47.2c-0.1,27.7,22.6,47.9,56.2,48c89.3,0.4,178.5,0.4,267.8,0
		c33.8-0.1,56.4-19.9,56.5-47.7c0.2-27.9-22.3-47.2-56.2-47.5C710.6,728.6,666,728.9,621.3,728.9z M219.6,728.9
		c-39.4-0.1-70.6,30.7-71.1,70c-0.5,40.8,31.3,72.3,72.3,71.7c39.6-0.5,69.8-31.5,69.4-71.3C289.9,759.9,258.8,729,219.6,728.9z
		 M1022.3,728.9c-39.2,0.2-70.1,31.4-70.1,70.7c0,40.1,29.9,70.5,69.6,71c41.3,0.4,72.3-30.8,71.7-72.1
		C1093,759.1,1061.9,728.7,1022.3,728.9z"/>
</g>
</svg>
